<?xml version="1.0" encoding="UTF-8"?>
<!DOCTYPE svg PUBLIC "-//W3C//DTD SVG 1.1//EN" "http://www.w3.org/Graphics/SVG/1.1/DTD/svg11.dtd">
<!-- DOPM: https://github.com/dopm/avatr -->
<svg xmlns="http://www.w3.org/2000/svg" xml:space="preserve" width="1396px" height="1396px" style="shape-rendering:geometricPrecision; text-rendering:geometricPrecision; image-rendering:optimizeQuality; fill-rule:evenodd; clip-rule:evenodd"
viewBox="0 0 13960 13960"
 xmlns:xlink="http://www.w3.org/1999/xlink">
 <defs>
  <style type="text/css">
   <![CDATA[
    .fi0 {fill:#e9ebf3}
    .fi3 {fill:white}
    .fi6 {fill:#131416}
    .fi7 {fill:#303237}
    .fi2 {fill:#3f4147}
    .fi4 {fill:#b2b2b2}
    .fi5 {fill:#cccccc}
    .fi8 {fill:white;fill-rule:nonzero}
    .fi1 {fill:url(#id0)}
   ]]>
  </style>
  <linearGradient id="id0" gradientUnits="userSpaceOnUse" x1="6979.85" y1="5218.44" x2="6979.85" y2="13960.9">
   <stop offset="0" style="stop-color:#CFD8E0"/>
   <stop offset="1" style="stop-color:white"/>
  </linearGradient>
 </defs>
 <g>
  <path class="fi0" d="M-0.519685 0.165354l13960.7 0 0 5218.31c-5401.56,300.402 -9798.75,2545.6 -13960.7,4875.92l0 -10094.2z"/>
  <path class="fi1" d="M-0.519685 10094.5c4162.05,-2330.58 8559.21,-4575.66 13960.7,-4876.1l0 8742.47 -13960.7 0 0 -3866.36z"/>
  <path class="fi2" d="M347.551 13960.9l12917.9 0c-83.9646,-574.843 -114.638,-1634.2 -252.555,-1724.2 -2277.73,-1346.17 -3165.05,-736.701 -4258.43,-1686.56l0 2.2441c-96.3426,190.205 -76.7481,827.315 -116.516,776.587 -2.98819,-3.92126 -496.618,842.044 -981.78,833.788 -1546.97,-25.9606 -2286.54,-1341.08 -2286.54,-1337.34l0 0 82.7835 -599.705 -83.5512 -201.78c-228.142,266.244 -669.933,537.981 -780.154,541.973 -1086.06,183.815 -2813.79,164.421 -3258.05,551.894 -512.575,559.524 -940.276,1856.25 -983.056,2843.09zm8402.49 -4536.32l0 -1.14567c-356.351,326.103 -630.449,669.544 -1199.85,950.623 -60.4134,37.2756 -687.792,50.0433 -758.788,-1.21654 -324.815,-237.52 -1114.15,-642 -1390.11,-1153.41 284.894,537.52 1201.41,1263.25 1660.25,1439.17 71.0788,51.5197 652.784,47.2677 788.126,4.90158 543.969,-409.11 516.284,-803.268 900.367,-1238.93zm-3380.46 -269.776c-14.5984,-32.752 -27.0354,-65.9292 -36.9685,-99.4843 0,-536.906 -310.902,-1470.85 -249.756,-1682.66 167.61,-577.985 105.591,-826.229 -39.1299,-1059.54 315.98,-66.0118 649.607,-286.252 899.197,-722.28 -515.941,96.6733 -1111.91,257.906 -1845.18,493.89l0 -0.0708662 -145.228 282.685c-3.18898,-203.362 56.9528,-445.819 155.374,-691.146 -8.18504,134.965 -11.3504,270.803 -10.1457,408.461l-145.228 282.685c-30.1181,88.8426 -350.752,614.28 16.8425,756.556l0.507874 767.493c644.835,367.335 795.473,667.713 435.142,1452.77l538.146 -243.154 -30.9803 656.658 457.028 -238.181 -0.389764 504.461 0.767717 -869.138zm3386.2 263.362c11.8583,-10.6535 23.4213,-21.1299 34.8071,-31.4292 -11.6929,10.4646 -23.2914,20.9291 -34.8071,31.4292zm188.669 -162.142c176.291,-44.8937 446.681,279.425 510.662,127.394 107.114,-165.768 88.8189,-543.012 97.2048,-797.374 133.028,-74.8347 319.559,-106.488 399.414,-224.15 55.4646,-139.347 25.5827,-364.559 38.2441,-546.992 314.162,-42.8268 435.614,-215.374 386.067,-1479.72 -1647.52,-592.394 -2494.89,-943.477 -3745.01,-839.587 691.111,877.052 1691.79,1468.87 2563.86,1652.76 85.7599,828.544 -250.441,1472.19 -250.441,2107.67zm1431.59 -2920.84c-3.62599,-9.48426 -7.98426,-19.2638 -12.7795,-29.2323 4.25197,9.7441 8.42126,19.5 12.7795,29.2323z"/>
  <path class="fi3" d="M5480.57 13960.9l4287.07 0c61.0985,0 111.661,-2.79921 111,-5.87008 -206.74,-971.8 -616.819,-1825.81 -1240.74,-2626.19 -3,-3.8504 -496.689,842.174 -981.733,833.989 -1546.97,-26.0551 -2286.62,-1341.15 -2286.62,-1337.49l0 3129.7c0,3.16536 49.9016,5.87008 111.012,5.87008z"/>
  <path class="fi3" d="M6219.2 4866.79c649.583,1221.15 1908.85,2056.73 2975.6,2281.7 85.5709,828.414 -250.311,1471.95 -250.311,2107.57 -464.788,372.685 -726.378,788.209 -1394.35,1118.09 -60.378,37.0748 -687.662,50.0315 -758.693,-1.2874 -358.843,-262.441 -1284.53,-728.457 -1458.83,-1317.58 0,-537.012 -310.984,-1470.76 -249.614,-1682.68 167.433,-577.843 105.532,-826.17 -39.1772,-1059.45 457.736,-95.5749 952.914,-515.221 1175.37,-1446.37z"/>
  <path class="fi4" d="M8754.38 9419.51c-358.583,327.272 -632.492,672.296 -1204.24,954.65 -60.378,37.0748 -687.662,50.0315 -758.693,-1.2874 -338.421,-247.5 -1180.89,-676.052 -1421.89,-1218.18 241.004,542.126 1214.56,1320.84 1692.05,1504.08 71.0433,51.3071 652.737,47.0551 788.02,4.6063 546.154,-410.41 516.036,-806.185 904.76,-1243.87z"/>
  <path class="fi0" d="M8754.38 10552.4l0 -1132.94c-388.725,437.681 -358.607,833.457 -904.76,1243.87 -135.284,42.4488 -716.977,46.7008 -788.02,-4.6063 -477.485,-183.236 -1451.04,-961.949 -1692.05,-1504.08l-0.720473 869.174 83.6339 201.862 -82.9134 599.611 0 0c0,-3.66142 739.642,1311.44 2286.62,1337.49 485.044,8.18504 978.733,-837.804 981.733,-833.989 39.6969,50.9528 20.0433,-586.146 116.48,-776.398z"/>
  <path class="fi5" d="M5369.55 10825.3c0,-3.66142 739.642,1311.44 2286.62,1337.49 485.044,8.18504 978.733,-837.804 981.733,-833.989 -3,-3.81496 -464.67,639.981 -949.642,651.886 -1557.66,38.2205 -2318.71,-1159.05 -2318.71,-1155.39z"/>
  <path class="fi6" d="M5497.18 2407.74c1210.7,-498.473 2120.85,-329.669 3423.44,109.996 3.44882,4.5 6.72048,8.94095 10.1575,13.441l-10.1575 -13.1811c-2216.3,-683.989 -4380.34,1238.85 -4779.86,2811.6 117.248,-899.067 492.449,-1788.78 1356.43,-2921.86zm-222.862 3332.59c-351.544,89.7166 -739.713,203.823 -1176.58,344.41l0 -0.11811c436.855,-140.539 825.036,-254.61 1176.58,-344.292z"/>
  <path class="fi7" d="M8920.62 2517.99c372.461,485.28 1789.3,2172.37 1455.45,3817.28 -2528.14,-909.001 -3171.7,-1250.16 -6278.44,-250.618 -289.784,-1601.19 2231.13,-4366.55 4822.99,-3566.66z"/>
  <path class="fi8" d="M6442.29 3688.16l0 430.004c0,132 -69.9922,196.004 -153.992,196.004 -94.004,0 -160.004,-69 -160.004,-167.008 0,-99.0001 63.0118,-165 157.996,-165 39.9921,0 94.4528,8.33859 156,62.6221l0 -96.4725c-65.2796,-43.7244 -123,-50.1496 -171,-50.1496 -123,0 -231,103.996 -231,238.004 0,142.004 92.0079,262.169 248.008,262.169 141,0 241.996,-106.169 241.996,-264.177l0 -445.996 -88.004 0zm157.004 460.004c0,148.004 116.008,250.169 249,250.169 133.004,0 249.012,-102.165 249.012,-250.169 0,-148.004 -116.008,-250.004 -249.012,-250.004 -132.992,0 -249,102 -249,250.004zm92.0079 0c0,-98.0079 66,-166.004 156.992,-166.004 91.004,0 157.004,67.9961 157.004,166.004 0,97.9961 -66,166.004 -157.004,166.004 -90.9922,0 -156.992,-68.0079 -156.992,-166.004zm562.996 456.166l0 -426.166c0,-132 70.004,-196.004 154.004,-196.004 94.004,0 160.004,69 160.004,166.996 0,99.0119 -63,165.012 -158.008,165.012 -34.9843,0 -76.8898,-15.3307 -108.248,-33.8858 -4.46457,-2.64567 -43.7599,-28.4646 -47.752,-31.2047l0 99.7914c15.8858,9.08268 67.3819,31.4882 84.2953,36.7914 27.815,8.74016 56.8937,12.6732 86.7048,12.6732 122.988,0 231.012,-104.173 231.012,-238.169 0,-142.004 -92.0079,-262.004 -248.008,-262.004 -141,0 -241.996,106.004 -241.996,264l0 442.17 87.9922 0zm565.004 -216.165l0 -306c0,-61.004 34.004,-100.004 86.0079,-100.004 57,0 93.9922,31.9961 93.9922,114l0 292.004 88.004 0 0 -292.004c0,-82.004 37.004,-114 94.004,-114 52.004,0 85.9961,39 85.9961,100.004l0 306 88.004 0 0 -326.008c0,-90.0001 -73.9961,-163.996 -172.004,-163.996 -54,0 -108,22.0039 -139.996,67.9961 -32.0079,-45.9922 -86.0079,-67.9961 -140.008,-67.9961 -97.9961,0 -171.992,73.9961 -171.992,163.996l0 326.008 87.9922 0z"/>
 </g>
</svg>
